<svg width="135" height="17" viewBox="0 0 135 17" fill="none" xmlns="http://www.w3.org/2000/svg">
<path d="M3.95999 0.0399933L6.40799 0.639993L5.85599 2.51199L3.86399 2.10399V4.50399H5.71199L5.39999 5.82399H3.86399V12.736C3.86399 12.768 3.88799 12.904 3.93599 13.144C3.96799 13.176 3.99999 13.24 4.03199 13.336C4.06399 13.416 4.09599 13.48 4.12799 13.528C4.17599 13.56 4.24799 13.624 4.34399 13.72C4.45599 13.816 4.53599 13.888 4.58399 13.936C4.75999 14.048 4.95199 14.144 5.15999 14.224L6.09599 13.432C6.09599 13.448 6.10399 13.464 6.12 13.48V13.504C6.12 13.52 6.128 13.528 6.14399 13.528C6.17599 13.528 6.19999 13.536 6.21599 13.552C6.24799 13.568 6.26399 13.584 6.26399 13.6C6.26399 13.6 6.28799 13.616 6.33599 13.648C6.38399 13.68 6.424 13.736 6.456 13.816L3.71999 16.192C2.80799 15.28 1.78399 14.624 0.647994 14.224C1.27199 13.712 1.58399 13.112 1.58399 12.424V5.89599L0.287994 5.82399L0.551994 4.55199L1.58399 4.50399V1.95999L3.95999 0.0399933Z" fill="black"/>
<path d="M9.25874 4.04799H9.30674C9.35474 4.09599 9.40274 4.11999 9.45074 4.11999C9.46674 4.11999 9.48274 4.11999 9.49874 4.11999C9.51474 4.13599 9.53074 4.15199 9.54674 4.16799C9.56274 4.18399 9.58674 4.19199 9.61874 4.19199C9.71474 4.28799 9.78674 4.35199 9.83474 4.38399C9.88274 4.39999 9.91474 4.42399 9.93074 4.45599C9.96274 4.48799 9.98674 4.51199 10.0027 4.52799C10.0187 4.54399 10.0427 4.56799 10.0747 4.59999C10.1067 4.61599 10.1227 4.63199 10.1227 4.64799C10.1387 4.66399 10.1547 4.68799 10.1707 4.71999C10.2027 4.75199 10.2187 4.77599 10.2187 4.79199C10.2187 4.74399 10.2427 4.79199 10.2907 4.93599C10.3387 4.96799 10.3867 5.03199 10.4347 5.12799C10.4667 5.14399 10.4907 5.19199 10.5067 5.27199C10.5067 5.27199 10.5227 5.31999 10.5547 5.41599C10.5707 5.41599 10.5867 5.43199 10.6027 5.46399C10.6187 5.49599 10.6267 5.52799 10.6267 5.55999C10.6267 5.59199 10.6347 5.63199 10.6507 5.67999C10.6827 5.72799 10.6987 5.75999 10.6987 5.77599C10.7147 5.77599 10.7307 5.81599 10.7467 5.89599C10.7787 5.97599 10.7947 6.02399 10.7947 6.03999C10.8107 6.05599 10.8267 6.07999 10.8427 6.11199C10.8427 6.12799 10.8427 6.15199 10.8427 6.18399L13.1707 4.09599L14.7067 5.89599L14.7547 6.08799L13.1707 7.52799L11.7787 6.03999L10.8427 6.87999V13.12C11.1627 13.536 11.5547 13.848 12.0187 14.056L12.8827 13.312L13.3147 13.72L10.5307 16.096C9.71474 15.216 8.81074 14.568 7.81874 14.152C8.10674 13.928 8.29074 13.664 8.37074 13.36C8.56274 13.088 8.65874 12.76 8.65874 12.376V7.09599C8.64274 7.07999 8.63474 7.04799 8.63474 6.99999V6.90399C8.61874 6.88799 8.60274 6.85599 8.58674 6.80799C8.58674 6.74399 8.51474 6.58399 8.37074 6.32799C8.27474 6.18399 8.15474 6.07199 8.01074 5.99199L7.45874 6.27999L7.26674 5.94399L9.25874 4.04799Z" fill="black"/>
<path d="M19.8356 4.04799C20.2676 4.41599 20.7796 4.75199 21.3716 5.05599C21.9636 5.34399 22.4916 5.55199 22.9556 5.67999L23.7476 5.89599V14.176L20.1236 16.096L17.0516 14.512L15.8036 14.176L16.3076 13.432L16.4516 12.64V6.03999C17.0596 5.92799 17.6596 5.69599 18.2516 5.34399C18.8436 4.97599 19.3716 4.55999 19.8356 4.09599V4.04799ZM18.7796 6.18399V13.072L21.4196 14.224V7.31199L18.7796 6.18399Z" fill="black"/>
<path d="M27.4485 4.04799C27.8805 4.43199 28.2485 4.84799 28.5525 5.29599C28.8565 5.74399 29.0165 6.23999 29.0325 6.78399L32.0085 4.09599L33.6405 5.72799L34.6245 4.88799L34.9365 5.19999C34.9205 5.24799 34.9045 5.27999 34.8885 5.29599L34.8405 5.34399C34.4085 5.77599 34.1125 6.28799 33.9525 6.87999V13.312C33.9525 13.312 33.9605 13.352 33.9765 13.432C33.9925 13.512 34.0085 13.568 34.0245 13.6C34.0565 13.632 34.0805 13.688 34.0965 13.768C34.1125 13.784 34.1365 13.816 34.1685 13.864C34.2005 13.896 34.2245 13.92 34.2405 13.936C34.2565 13.952 34.2965 14 34.3605 14.08C34.4245 14.16 34.4805 14.208 34.5285 14.224L35.0325 13.816L35.4165 14.224L33.2085 16.096C32.8565 15.984 32.5605 15.792 32.3205 15.52C32.0485 15.152 31.8645 14.832 31.7685 14.56V7.31199C31.7365 7.31199 31.7205 7.30399 31.7205 7.28799C31.7205 7.25599 31.7125 7.22399 31.6965 7.19199C31.6805 7.15999 31.6645 7.14399 31.6485 7.14399C31.6165 7.03199 31.5685 6.93599 31.5045 6.85599C31.4085 6.66399 31.2885 6.51999 31.1445 6.42399C31.0165 6.26399 30.8725 6.16799 30.7125 6.13599L30.4725 6.08799L28.9845 7.52799V13.312C29.0325 13.456 29.1045 13.616 29.2005 13.792C29.3125 13.968 29.4165 14.104 29.5125 14.2C29.5445 14.216 29.5765 14.256 29.6085 14.32C29.6405 14.368 29.6565 14.4 29.6565 14.416C29.6725 14.416 29.6965 14.432 29.7285 14.464C28.9765 15.28 28.3445 15.808 27.8325 16.048L26.0565 14.416L26.7525 13.672V6.97599C26.7525 6.89599 26.7125 6.79199 26.6325 6.66399C26.5845 6.58399 26.5045 6.47199 26.3925 6.32799C26.2965 6.27999 26.2485 6.23199 26.2485 6.18399L25.7205 6.37599L25.5045 6.03999L27.4485 4.04799Z" fill="black"/>
<path d="M39.9789 0.975993V4.55199H42.4509V5.72799H39.9309V13.264L41.0589 14.224L41.9229 13.576L42.2589 13.96L39.6909 16.192C39.1629 15.696 38.7389 15.336 38.4189 15.112C37.8909 14.744 37.4029 14.464 36.9549 14.272C37.1629 13.984 37.3149 13.696 37.4109 13.408C37.5709 12.912 37.6509 12.6 37.6509 12.472V5.82399L36.7629 5.72799L36.9069 5.29599L39.9789 0.975993Z" fill="black"/>
<path d="M47.6057 4.04799L50.7257 7.26399L46.5977 10.888V13.264L48.5897 14.224L50.0777 13.12L50.4137 13.576L47.1977 16.096H47.1017C47.0217 16.096 46.9097 16.072 46.7657 16.024C46.6217 15.992 46.5257 15.976 46.4777 15.976C46.4457 15.96 46.2617 15.832 45.9257 15.592C45.8937 15.576 45.8457 15.536 45.7817 15.472C45.7657 15.456 45.7417 15.432 45.7097 15.4C45.6777 15.368 45.6377 15.344 45.5897 15.328C45.5417 15.296 45.4537 15.248 45.3257 15.184C45.2137 15.104 45.0697 15.048 44.8937 15.016L44.6777 14.944C44.6297 14.944 44.5657 14.936 44.4857 14.92C44.4217 14.904 44.3497 14.888 44.2697 14.872C44.1897 14.856 44.1097 14.832 44.0297 14.8C43.9657 14.768 43.8137 14.736 43.5737 14.704C44.1017 14.176 44.3657 13.552 44.3657 12.832V6.13599C44.9257 5.92799 45.4937 5.63199 46.0697 5.24799C46.5497 4.92799 47.0617 4.54399 47.6057 4.09599V4.04799ZM46.5977 6.18399V9.95199C46.6937 9.93599 46.8057 9.87199 46.9337 9.75999L47.2937 9.47199C47.3257 9.45599 47.3497 9.43999 47.3657 9.42399C47.3977 9.39199 47.4217 9.37599 47.4377 9.37599C47.4537 9.35999 47.4777 9.34399 47.5097 9.32799C47.5417 9.29599 47.5577 9.27999 47.5577 9.27999C47.5737 9.26399 47.6137 9.23199 47.6777 9.18399C47.7417 9.13599 47.7897 9.09599 47.8217 9.06399C47.9657 8.98399 48.1177 8.87999 48.2777 8.75199C48.4377 8.60799 48.5737 8.47999 48.6857 8.36799L46.5977 6.18399Z" fill="black"/>
<path d="M53.8626 4.04799C54.2946 4.43199 54.6626 4.84799 54.9666 5.29599C55.2706 5.74399 55.4306 6.23999 55.4466 6.78399L58.4226 4.09599L60.0546 5.72799L61.0386 4.88799L61.3506 5.19999C61.3346 5.24799 61.3186 5.27999 61.3026 5.29599L61.2546 5.34399C60.8226 5.77599 60.5266 6.28799 60.3666 6.87999V13.312C60.3666 13.312 60.3746 13.352 60.3906 13.432C60.4066 13.512 60.4226 13.568 60.4386 13.6C60.4706 13.632 60.4946 13.688 60.5106 13.768C60.5266 13.784 60.5506 13.816 60.5826 13.864C60.6146 13.896 60.6386 13.92 60.6546 13.936C60.6706 13.952 60.7106 14 60.7746 14.08C60.8386 14.16 60.8946 14.208 60.9426 14.224L61.4466 13.816L61.8306 14.224L59.6226 16.096C59.2706 15.984 58.9746 15.792 58.7346 15.52C58.4626 15.152 58.2786 14.832 58.1826 14.56V7.31199C58.1506 7.31199 58.1346 7.30399 58.1346 7.28799C58.1346 7.25599 58.1266 7.22399 58.1106 7.19199C58.0946 7.15999 58.0786 7.14399 58.0626 7.14399C58.0306 7.03199 57.9826 6.93599 57.9186 6.85599C57.8226 6.66399 57.7026 6.51999 57.5586 6.42399C57.4306 6.26399 57.2866 6.16799 57.1266 6.13599L56.8866 6.08799L55.3986 7.52799V13.312C55.4466 13.456 55.5186 13.616 55.6146 13.792C55.7266 13.968 55.8306 14.104 55.9266 14.2C55.9586 14.216 55.9906 14.256 56.0226 14.32C56.0546 14.368 56.0706 14.4 56.0706 14.416C56.0866 14.416 56.1106 14.432 56.1426 14.464C55.3906 15.28 54.7586 15.808 54.2466 16.048L52.4706 14.416L53.1666 13.672V6.97599C53.1666 6.89599 53.1266 6.79199 53.0466 6.66399C52.9986 6.58399 52.9186 6.47199 52.8066 6.32799C52.7106 6.27999 52.6626 6.23199 52.6626 6.18399L52.1346 6.37599L51.9186 6.03999L53.8626 4.04799Z" fill="black"/>
<path d="M62.865 0.519993L70.113 5.48799C70.145 5.47199 70.209 5.39999 70.305 5.27199C70.353 5.22399 70.441 5.14399 70.569 5.03199C70.713 4.90399 70.889 4.79199 71.097 4.69599L70.857 5.48799V14.224C70.473 14.384 69.905 14.648 69.153 15.016C68.801 15.24 68.281 15.568 67.593 16C67.561 16 67.537 16.008 67.521 16.024C67.521 16.04 67.497 16.064 67.449 16.096C67.401 16.144 67.361 16.176 67.329 16.192L65.505 15.064L62.913 14.224C63.377 13.824 63.609 13.312 63.609 12.688V6.08799L65.745 5.19999L62.817 2.79999L62.865 0.519993ZM66.633 5.77599L65.889 6.23199V12.976L68.529 14.056V7.35999L66.633 5.77599Z" fill="black"/>
<path d="M85.6927 4.04799L88.2127 5.82399L87.1327 7.43199C86.3967 7.19199 85.6847 6.79199 84.9967 6.23199V13.072C85.2527 13.328 85.5727 13.536 85.9567 13.696C86.0687 13.76 86.1967 13.84 86.3407 13.936C86.5007 14.016 86.6927 14.112 86.9167 14.224L88.1167 13.312C88.1327 13.328 88.1487 13.352 88.1647 13.384C88.1807 13.416 88.2047 13.448 88.2367 13.48L88.3087 13.552C88.3087 13.632 88.3567 13.72 88.4527 13.816L85.4287 16.096C84.1647 15.2 83.0447 14.656 82.0687 14.464C82.5007 13.968 82.7167 13.44 82.7167 12.88V6.03999C83.0367 5.95999 83.4367 5.75199 83.9167 5.41599C83.9807 5.36799 84.0527 5.31199 84.1327 5.24799C84.2127 5.16799 84.3167 5.08799 84.4447 5.00799L85.0207 4.43199C85.0847 4.38399 85.1647 4.31199 85.2607 4.21599C85.3727 4.11999 85.4767 4.07999 85.5727 4.09599H85.6927V4.04799Z" fill="black"/>
<path d="M93.6872 4.04799C94.1192 4.41599 94.6312 4.75199 95.2232 5.05599C95.8152 5.34399 96.3432 5.55199 96.8072 5.67999L97.5992 5.89599V14.176L93.9752 16.096L90.9032 14.512L89.6552 14.176L90.1592 13.432L90.3032 12.64V6.03999C90.9112 5.92799 91.5112 5.69599 92.1032 5.34399C92.6952 4.97599 93.2232 4.55999 93.6872 4.09599V4.04799ZM92.6312 6.18399V13.072L95.2712 14.224V7.31199L92.6312 6.18399Z" fill="black"/>
<path d="M101.204 4.04799H101.252C101.3 4.09599 101.348 4.11999 101.396 4.11999C101.412 4.11999 101.428 4.11999 101.444 4.11999C101.46 4.13599 101.476 4.15199 101.492 4.16799C101.508 4.18399 101.532 4.19199 101.564 4.19199C101.66 4.28799 101.732 4.35199 101.78 4.38399C101.828 4.39999 101.86 4.42399 101.876 4.45599C101.908 4.48799 101.932 4.51199 101.948 4.52799C101.964 4.54399 101.988 4.56799 102.02 4.59999C102.052 4.61599 102.068 4.63199 102.068 4.64799C102.084 4.66399 102.1 4.68799 102.116 4.71999C102.148 4.75199 102.164 4.77599 102.164 4.79199C102.164 4.74399 102.188 4.79199 102.236 4.93599C102.284 4.96799 102.332 5.03199 102.38 5.12799C102.412 5.14399 102.436 5.19199 102.452 5.27199C102.452 5.27199 102.468 5.31999 102.5 5.41599C102.516 5.41599 102.532 5.43199 102.548 5.46399C102.564 5.49599 102.572 5.52799 102.572 5.55999C102.572 5.59199 102.58 5.63199 102.596 5.67999C102.628 5.72799 102.644 5.75999 102.644 5.77599C102.66 5.77599 102.676 5.81599 102.692 5.89599C102.724 5.97599 102.74 6.02399 102.74 6.03999C102.756 6.05599 102.772 6.07999 102.788 6.11199C102.788 6.12799 102.788 6.15199 102.788 6.18399L105.116 4.09599L106.652 5.89599L106.7 6.08799L105.116 7.52799L103.724 6.03999L102.788 6.87999V13.12C103.108 13.536 103.5 13.848 103.964 14.056L104.828 13.312L105.26 13.72L102.476 16.096C101.66 15.216 100.756 14.568 99.7641 14.152C100.052 13.928 100.236 13.664 100.316 13.36C100.508 13.088 100.604 12.76 100.604 12.376V7.09599C100.588 7.07999 100.58 7.04799 100.58 6.99999V6.90399C100.564 6.88799 100.548 6.85599 100.532 6.80799C100.532 6.74399 100.46 6.58399 100.316 6.32799C100.22 6.18399 100.1 6.07199 99.9561 5.99199L99.4041 6.27999L99.2121 5.94399L101.204 4.04799Z" fill="black"/>
<path d="M109.597 4.04799C110.029 4.43199 110.397 4.84799 110.701 5.29599C111.005 5.74399 111.165 6.23999 111.181 6.78399L114.157 4.09599L115.789 5.72799L116.773 4.88799L117.085 5.19999C117.069 5.24799 117.053 5.27999 117.037 5.29599L116.989 5.34399C116.557 5.77599 116.261 6.28799 116.101 6.87999V13.312C116.101 13.312 116.109 13.352 116.125 13.432C116.141 13.512 116.157 13.568 116.173 13.6C116.205 13.632 116.229 13.688 116.245 13.768C116.261 13.784 116.285 13.816 116.317 13.864C116.349 13.896 116.373 13.92 116.389 13.936C116.405 13.952 116.445 14 116.509 14.08C116.573 14.16 116.629 14.208 116.677 14.224L117.181 13.816L117.565 14.224L115.357 16.096C115.005 15.984 114.709 15.792 114.469 15.52C114.197 15.152 114.013 14.832 113.917 14.56V7.31199C113.885 7.31199 113.869 7.30399 113.869 7.28799C113.869 7.25599 113.861 7.22399 113.845 7.19199C113.829 7.15999 113.813 7.14399 113.797 7.14399C113.765 7.03199 113.717 6.93599 113.653 6.85599C113.557 6.66399 113.437 6.51999 113.293 6.42399C113.165 6.26399 113.021 6.16799 112.861 6.13599L112.621 6.08799L111.133 7.52799V13.312C111.181 13.456 111.253 13.616 111.349 13.792C111.461 13.968 111.565 14.104 111.661 14.2C111.693 14.216 111.725 14.256 111.757 14.32C111.789 14.368 111.805 14.4 111.805 14.416C111.821 14.416 111.845 14.432 111.877 14.464C111.125 15.28 110.493 15.808 109.981 16.048L108.205 14.416L108.901 13.672V6.97599C108.901 6.89599 108.861 6.79199 108.781 6.66399C108.733 6.58399 108.653 6.47199 108.541 6.32799C108.445 6.27999 108.397 6.23199 108.397 6.18399L107.869 6.37599L107.653 6.03999L109.597 4.04799Z" fill="black"/>
<path d="M122.535 4.04799L125.655 7.26399L121.527 10.888V13.264L123.519 14.224L125.007 13.12L125.343 13.576L122.127 16.096H122.031C121.951 16.096 121.839 16.072 121.695 16.024C121.551 15.992 121.455 15.976 121.407 15.976C121.375 15.96 121.191 15.832 120.855 15.592C120.823 15.576 120.775 15.536 120.711 15.472C120.695 15.456 120.671 15.432 120.639 15.4C120.607 15.368 120.567 15.344 120.519 15.328C120.471 15.296 120.383 15.248 120.255 15.184C120.143 15.104 119.999 15.048 119.823 15.016L119.607 14.944C119.559 14.944 119.495 14.936 119.415 14.92C119.351 14.904 119.279 14.888 119.199 14.872C119.119 14.856 119.039 14.832 118.959 14.8C118.895 14.768 118.743 14.736 118.503 14.704C119.031 14.176 119.295 13.552 119.295 12.832V6.13599C119.855 5.92799 120.423 5.63199 120.999 5.24799C121.479 4.92799 121.991 4.54399 122.535 4.09599V4.04799ZM121.527 6.18399V9.95199C121.623 9.93599 121.735 9.87199 121.863 9.75999L122.223 9.47199C122.255 9.45599 122.279 9.43999 122.295 9.42399C122.327 9.39199 122.351 9.37599 122.367 9.37599C122.383 9.35999 122.407 9.34399 122.439 9.32799C122.471 9.29599 122.487 9.27999 122.487 9.27999C122.503 9.26399 122.543 9.23199 122.607 9.18399C122.671 9.13599 122.719 9.09599 122.751 9.06399C122.895 8.98399 123.047 8.87999 123.207 8.75199C123.367 8.60799 123.503 8.47999 123.615 8.36799L121.527 6.18399Z" fill="black"/>
<path d="M128.696 4.04799H128.744C128.792 4.09599 128.84 4.11999 128.888 4.11999C128.904 4.11999 128.92 4.11999 128.936 4.11999C128.952 4.13599 128.968 4.15199 128.984 4.16799C129 4.18399 129.024 4.19199 129.056 4.19199C129.152 4.28799 129.224 4.35199 129.272 4.38399C129.32 4.39999 129.352 4.42399 129.368 4.45599C129.4 4.48799 129.424 4.51199 129.44 4.52799C129.456 4.54399 129.48 4.56799 129.512 4.59999C129.544 4.61599 129.56 4.63199 129.56 4.64799C129.576 4.66399 129.592 4.68799 129.608 4.71999C129.64 4.75199 129.656 4.77599 129.656 4.79199C129.656 4.74399 129.68 4.79199 129.728 4.93599C129.776 4.96799 129.824 5.03199 129.872 5.12799C129.904 5.14399 129.928 5.19199 129.944 5.27199C129.944 5.27199 129.96 5.31999 129.992 5.41599C130.008 5.41599 130.024 5.43199 130.04 5.46399C130.056 5.49599 130.064 5.52799 130.064 5.55999C130.064 5.59199 130.072 5.63199 130.088 5.67999C130.12 5.72799 130.136 5.75999 130.136 5.77599C130.152 5.77599 130.168 5.81599 130.184 5.89599C130.216 5.97599 130.232 6.02399 130.232 6.03999C130.248 6.05599 130.264 6.07999 130.28 6.11199C130.28 6.12799 130.28 6.15199 130.28 6.18399L132.608 4.09599L134.144 5.89599L134.192 6.08799L132.608 7.52799L131.216 6.03999L130.28 6.87999V13.12C130.6 13.536 130.992 13.848 131.456 14.056L132.32 13.312L132.752 13.72L129.968 16.096C129.152 15.216 128.248 14.568 127.256 14.152C127.544 13.928 127.728 13.664 127.808 13.36C128 13.088 128.096 12.76 128.096 12.376V7.09599C128.08 7.07999 128.072 7.04799 128.072 6.99999V6.90399C128.056 6.88799 128.04 6.85599 128.024 6.80799C128.024 6.74399 127.952 6.58399 127.808 6.32799C127.712 6.18399 127.592 6.07199 127.448 5.99199L126.896 6.27999L126.704 5.94399L128.696 4.04799Z" fill="black"/>
</svg>
